<?xml version="1.0" encoding="UTF-8"?>
<!DOCTYPE svg PUBLIC "-//W3C//DTD SVG 1.1//EN" "http://www.w3.org/Graphics/SVG/1.1/DTD/svg11.dtd">
<svg xmlns="http://www.w3.org/2000/svg" version="1.1" width="207px" height="100px" style="shape-rendering:geometricPrecision; text-rendering:geometricPrecision; image-rendering:optimizeQuality; fill-rule:evenodd; clip-rule:evenodd" xmlns:xlink="http://www.w3.org/1999/xlink">
<g><path style="opacity:1" fill="#e6e6e6" d="M 15.5,37.5 C 14.5655,38.5676 14.2322,39.901 14.5,41.5C 16.8333,41.5 19.1667,41.5 21.5,41.5C 21.5,43.5 21.5,45.5 21.5,47.5C 19.5,47.5 17.5,47.5 15.5,47.5C 15.6663,54.5079 15.4996,61.5079 15,68.5C 12.6194,69.435 10.1194,69.7683 7.5,69.5C 7.5,62.1667 7.5,54.8333 7.5,47.5C 5.83333,47.5 4.16667,47.5 2.5,47.5C 2.5,45.1667 2.5,42.8333 2.5,40.5C 4.16667,40.5 5.83333,40.5 7.5,40.5C 7.92341,31.6067 12.5901,27.9401 21.5,29.5C 21.5,31.8333 21.5,34.1667 21.5,36.5C 20.1779,36.67 19.0113,36.3366 18,35.5C 17.0053,36.0659 16.172,36.7326 15.5,37.5 Z"/></g>
<g><path style="opacity:1" fill="#e4e4e4" d="M 111.5,29.5 C 118.158,28.3445 120.158,30.8445 117.5,37C 110.254,38.274 108.254,35.774 111.5,29.5 Z"/></g>
<g><path style="opacity:1" fill="#eeeeee" d="M 76.5,30.5 C 78.8333,30.5 81.1667,30.5 83.5,30.5C 83.3345,34.5138 83.5012,38.5138 84,42.5C 100.277,37.4379 107.61,43.4379 106,60.5C 100.931,69.6128 93.5973,71.9461 84,67.5C 81.8646,69.2785 79.3646,69.9452 76.5,69.5C 76.5,56.5 76.5,43.5 76.5,30.5 Z M 87.5,47.5 C 95.6647,46.1752 99.498,49.5085 99,57.5C 95.0662,64.1575 90.3996,64.8242 85,59.5C 82.6957,54.8553 83.529,50.8553 87.5,47.5 Z"/></g>
<g><path style="opacity:1" fill="#858585" d="M 15.5,37.5 C 15.5,38.5 15.5,39.5 15.5,40.5C 17.7354,40.2053 19.7354,40.5386 21.5,41.5C 19.1667,41.5 16.8333,41.5 14.5,41.5C 14.2322,39.901 14.5655,38.5676 15.5,37.5 Z"/></g>
<g><path style="opacity:1" fill="#ececec" d="M 31.5,40.5 C 48.7216,39.5388 54.8882,47.2055 50,63.5C 44.7203,69.1702 38.2203,71.0035 30.5,69C 21.8646,64.0981 19.3646,56.9315 23,47.5C 25.4639,44.519 28.2972,42.1856 31.5,40.5 Z M 33.5,47.5 C 43.0004,47.17 46.1671,51.5033 43,60.5C 38.3568,64.512 34.0234,64.1786 30,59.5C 28.5927,54.556 29.7593,50.556 33.5,47.5 Z"/></g>
<g><path style="opacity:1" fill="#dddddc" d="M 56.5,40.5 C 58.5273,40.3379 60.5273,40.5045 62.5,41C 63.1258,41.7504 63.6258,42.5838 64,43.5C 66.6417,40.9712 69.8084,39.9712 73.5,40.5C 73.5,42.8333 73.5,45.1667 73.5,47.5C 69.1116,46.9433 65.9449,48.6099 64,52.5C 63.5006,58.1569 63.3339,63.8236 63.5,69.5C 60.8806,69.7683 58.3806,69.435 56,68.5C 55.1954,59.0891 55.362,49.7557 56.5,40.5 Z"/></g>
<g><path style="opacity:1" fill="#ebebeb" d="M 132.5,40.5 C 148.303,39.1298 154.803,46.1298 152,61.5C 147.152,69.0557 140.318,71.5557 131.5,69C 122.581,64.241 120.081,57.0744 124,47.5C 126.464,44.519 129.297,42.1856 132.5,40.5 Z M 134.5,47.5 C 144,47.17 147.167,51.5033 144,60.5C 136.838,65.0001 132.005,63.1667 129.5,55C 129.844,51.5107 131.51,49.0107 134.5,47.5 Z"/></g>
<g><path style="opacity:1" fill="#e2e2e2" d="M 157.5,40.5 C 160.365,40.0548 162.865,40.7215 165,42.5C 168.933,40.5223 173.1,40.0223 177.5,41C 180.728,42.5629 182.895,45.0629 184,48.5C 184.5,55.4921 184.666,62.4921 184.5,69.5C 181.833,69.5 179.167,69.5 176.5,69.5C 176.666,63.1579 176.5,56.8246 176,50.5C 173.833,47.7132 170.999,46.8799 167.5,48C 166.299,48.9025 165.465,50.0692 165,51.5C 164.501,57.4908 164.334,63.4908 164.5,69.5C 161.881,69.7683 159.381,69.435 157,68.5C 156.195,59.0891 156.362,49.7557 157.5,40.5 Z"/></g>
<g><path style="opacity:1" fill="#e3e3e3" d="M 110.5,40.5 C 113.119,40.2317 115.619,40.565 118,41.5C 118.667,50.5 118.667,59.5 118,68.5C 115.619,69.435 113.119,69.7683 110.5,69.5C 110.5,59.8333 110.5,50.1667 110.5,40.5 Z"/></g>
<g><path style="opacity:1" fill="#0c77cd" d="M 195.5,55.5 C 202.417,55.9749 204.917,59.6416 203,66.5C 196.666,71.427 192.166,70.0936 189.5,62.5C 190.148,58.8618 192.148,56.5285 195.5,55.5 Z"/></g>
</svg>
